<svg xmlns="http://www.w3.org/2000/svg" id="Layer_1" data-name="Layer 1" viewBox="0 -.01 93.39 46.01"><defs/><path d="M134.91,218.94h4.16v-4.16h-4.16v4.16Zm6.92,0H146v-4.16h-4.16v4.16Zm48.78,9.31-17.8-17.53v-18l-8.57-8.57v18.11l-17-16.74-3.33-3.28-3.33,3.28L97.22,228.25l46.7-32.36ZM144,185.83v7l-29.42,21.33Zm-9.09,26.56h4.16v-4.16h-4.16v4.16Zm6.92,0H146v-4.16h-4.16v4.16Zm6.92,0h4.16v-4.16h-4.16v4.16Zm0,6.55h4.16v-4.16h-4.16v4.16Z" transform="translate(-97.22 -182.25)" style="fill:#c5ab7b"/></svg>